<svg width="100" height="100" viewBox="0 0 100 100" fill="none" xmlns="http://www.w3.org/2000/svg">
<g clip-path="url(#clip0_111_1034)" filter="url(#filter0_i_111_1034)">
<path fill-rule="evenodd" clip-rule="evenodd" d="M50 0C77.6162 0 100 22.3838 100 50C100 77.6162 77.6162 100 50 100C22.3838 100 0 77.6162 0 50C0 22.3838 22.3838 0 50 0Z" fill="#F0B90B"/>
<path d="M27.48 50L27.516 63.2211L38.75 69.8317V77.5721L20.9415 67.1274V46.1338L27.48 50ZM27.48 36.7788V44.4832L20.9375 40.613V32.9086L27.48 29.0385L34.0545 32.9086L27.48 36.7788ZM43.4415 32.9086L49.984 29.0385L56.5585 32.9086L49.984 36.7788L43.4415 32.9086Z" fill="white"/>
<path d="M32.2075 60.4808V52.7404L38.75 56.6106V64.3149L32.2075 60.4808ZM43.4415 72.6042L49.984 76.4743L56.5585 72.6042V80.3085L49.984 84.1787L43.4415 80.3085V72.6042ZM65.9415 32.9086L72.484 29.0385L79.0585 32.9086V40.613L72.484 44.4832V36.7788L65.9415 32.9086ZM72.484 63.2211L72.52 50L79.0625 46.1298V67.1234L61.254 77.5681V69.8277L72.484 63.2211Z" fill="white"/>
<path d="M67.7925 60.4807L61.25 64.3149V56.6105L67.7925 52.7404V60.4807Z" fill="white"/>
<path d="M67.7925 39.5192L67.8285 47.2596L56.5625 53.8702V67.1234L50.02 70.9575L43.4775 67.1234V53.8702L32.2115 47.2596V39.5192L38.782 35.649L49.98 42.2916L61.246 35.649L67.8205 39.5192H67.7925ZM32.2075 26.3021L49.984 15.8213L67.7925 26.3021L61.25 30.1722L49.984 23.5296L38.75 30.1722L32.2075 26.3021Z" fill="white"/>
</g>
<defs>
<filter id="filter0_i_111_1034" x="0" y="0" width="104" height="104" filterUnits="userSpaceOnUse" color-interpolation-filters="sRGB">
<feFlood flood-opacity="0" result="BackgroundImageFix"/>
<feBlend mode="normal" in="SourceGraphic" in2="BackgroundImageFix" result="shape"/>
<feColorMatrix in="SourceAlpha" type="matrix" values="0 0 0 0 0 0 0 0 0 0 0 0 0 0 0 0 0 0 127 0" result="hardAlpha"/>
<feOffset dx="10" dy="6"/>
<feGaussianBlur stdDeviation="2"/>
<feComposite in2="hardAlpha" operator="arithmetic" k2="-1" k3="1"/>
<feColorMatrix type="matrix" values="0 0 0 0 0 0 0 0 0 0 0 0 0 0 0 0 0 0 0.32 0"/>
<feBlend mode="normal" in2="shape" result="effect1_innerShadow_111_1034"/>
</filter>
<clipPath id="clip0_111_1034">
<rect width="100" height="100" fill="white"/>
</clipPath>
</defs>
</svg>
