<svg width="100" height="100" viewBox="0 0 100 100" fill="none" xmlns="http://www.w3.org/2000/svg">
<g filter="url(#filter0_i_111_1074)">
<rect width="100" height="100" rx="50" fill="#E0E0E0"/>
<path d="M50.4911 0L49.8246 2.27888V68.4009L50.4911 69.0703L80.9813 50.9277L50.4911 0Z" fill="#343434"/>
<path d="M50.4911 0L20 50.9277L50.4911 69.0703V36.9765V0Z" fill="#8C8C8C"/>
<path d="M50.491 74.8814L50.1154 75.3425V98.8962L50.491 100L80.9999 56.7482L50.491 74.8814Z" fill="#3C3C3B"/>
<path d="M50.4911 100V74.8814L20 56.7482L50.4911 100Z" fill="#8C8C8C"/>
<path d="M50.4911 69.0703L80.9814 50.9277L50.4911 36.9764V69.0703Z" fill="#141414"/>
<path d="M20 50.9277L50.4911 69.0703V36.9764L20 50.9277Z" fill="#393939"/>
</g>
<defs>
<filter id="filter0_i_111_1074" x="0" y="0" width="104" height="104" filterUnits="userSpaceOnUse" color-interpolation-filters="sRGB">
<feFlood flood-opacity="0" result="BackgroundImageFix"/>
<feBlend mode="normal" in="SourceGraphic" in2="BackgroundImageFix" result="shape"/>
<feColorMatrix in="SourceAlpha" type="matrix" values="0 0 0 0 0 0 0 0 0 0 0 0 0 0 0 0 0 0 127 0" result="hardAlpha"/>
<feOffset dx="10" dy="6"/>
<feGaussianBlur stdDeviation="2"/>
<feComposite in2="hardAlpha" operator="arithmetic" k2="-1" k3="1"/>
<feColorMatrix type="matrix" values="0 0 0 0 0 0 0 0 0 0 0 0 0 0 0 0 0 0 0.32 0"/>
<feBlend mode="normal" in2="shape" result="effect1_innerShadow_111_1074"/>
</filter>
</defs>
</svg>
