<svg width="100" height="100" viewBox="0 0 100 100" fill="none" xmlns="http://www.w3.org/2000/svg">
<g clip-path="url(#clip0_111_1030)" filter="url(#filter0_i_111_1030)">
<path d="M50 0C77.6111 0 100 22.3889 100 50C100 77.6111 77.6111 100 50 100C22.3889 100 0 77.625 0 50C0 22.375 22.3889 0 50 0Z" fill="#26A17B"/>
<path d="M57.0403 44.4251V36.9807H74.0541V25.6473H27.7347V36.9807H44.7486V44.4251C30.9291 45.064 20.5264 47.8001 20.5264 51.0779C20.5264 54.3557 30.9291 57.0918 44.7486 57.7307V81.5501H57.0541V57.7307C70.8597 57.0918 81.2347 54.3557 81.2347 51.0779C81.2208 47.8001 70.8458 45.064 57.0403 44.4251ZM57.0541 55.7168C56.7069 55.7307 54.9291 55.8418 50.9569 55.8418C47.7764 55.8418 45.5541 55.7585 44.7625 55.7168V55.7307C32.5541 55.189 23.4291 53.064 23.4291 50.5223C23.4291 47.9807 32.5403 45.8557 44.7625 45.314V53.5918C45.568 53.6473 47.8458 53.7862 51.0125 53.7862C54.8041 53.7862 56.7069 53.6335 57.068 53.5918V45.2862C69.2625 45.8279 78.3597 47.9529 78.3597 50.4946C78.3319 53.0362 69.2347 55.1612 57.0541 55.7168Z" fill="white"/>
</g>
<defs>
<filter id="filter0_i_111_1030" x="0" y="0" width="104" height="104" filterUnits="userSpaceOnUse" color-interpolation-filters="sRGB">
<feFlood flood-opacity="0" result="BackgroundImageFix"/>
<feBlend mode="normal" in="SourceGraphic" in2="BackgroundImageFix" result="shape"/>
<feColorMatrix in="SourceAlpha" type="matrix" values="0 0 0 0 0 0 0 0 0 0 0 0 0 0 0 0 0 0 127 0" result="hardAlpha"/>
<feOffset dx="10" dy="6"/>
<feGaussianBlur stdDeviation="2"/>
<feComposite in2="hardAlpha" operator="arithmetic" k2="-1" k3="1"/>
<feColorMatrix type="matrix" values="0 0 0 0 0 0 0 0 0 0 0 0 0 0 0 0 0 0 0.32 0"/>
<feBlend mode="normal" in2="shape" result="effect1_innerShadow_111_1030"/>
</filter>
<clipPath id="clip0_111_1030">
<rect width="100" height="100" fill="white"/>
</clipPath>
</defs>
</svg>
