<svg id="Layer_1" data-name="Layer 1" xmlns="http://www.w3.org/2000/svg" viewBox="0 0 396.86747 176.96386">
  <g>
    <path d="M184.98406,103.49762H143.321a15.86378,15.86378,0,0,0-9.90334,3.28432,9.67339,9.67339,0,0,0,0,15.82976,15.85793,15.85793,0,0,0,9.90334,3.27446h41.663c1.8028,0,3.26-1.16381,3.26-2.60379v-17.181C188.244,104.66142,186.78686,103.49762,184.98406,103.49762ZM143.56792,118.42c-2.58074,0-4.6676-1.66681-4.6676-3.72816s2.08686-3.738,4.6676-3.738,4.66768,1.67669,4.66768,3.738S146.14874,118.42,143.56792,118.42Z" style="fill: #ae2546"/>
    <path d="M67.08283,113.60763v20.8561a1.08793,1.08793,0,0,0,1.08794,1.08794h.02207a1.08794,1.08794,0,0,0,1.08794-1.08794V113.60808a1.09514,1.09514,0,0,0-1.06629-1.087l-.022-.00086A1.08039,1.08039,0,0,0,67.08283,113.60763Zm2.33376-29.52c-2.40793,0-4.45019,9.84273-4.45019,11.75605,0,1.92325,1.951,3.48159,4.3589,3.48159,2.39557,0,4.34662-1.55834,4.34662-3.48159C73.67192,93.93039,71.81216,84.08766,69.41659,84.08766Zm0,0c-2.40793,0-4.45019,9.84273-4.45019,11.75605,0,1.92325,1.951,3.48159,4.3589,3.48159,2.39557,0,4.34662-1.55834,4.34662-3.48159C73.67192,93.93039,71.81216,84.08766,69.41659,84.08766Zm-1.24582,51.464h.02207a1.08794,1.08794,0,0,0,1.08794-1.08794V113.60808a1.09514,1.09514,0,0,0-1.06629-1.087l-.022-.00086a1.08039,1.08039,0,0,0-1.10971,1.08741v20.8561A1.08793,1.08793,0,0,0,68.17077,135.55167ZM143.321,96.60354H179.636a1.08794,1.08794,0,0,0,1.08794-1.08794V75.11249c0-8.94549-8.63142-16.28341-19.60905-17.00343V58.04H39.90428c-3.19824,0-5.8037-2.081-5.8037-4.63546,0-2.57423,2.60546-4.64539,5.8037-4.64539h120.037a1.0998,1.0998,0,0,0,1.08574-1.22455c-.92971-8.74617-10.1105-15.62111-21.29943-15.62111H47.44905c-18.38659,0-33.34032,11.59865-34.13063,26.12651H13.232v76.30837c0,15.09011,15.32425,27.31993,34.21708,27.31993h111.9c11.80494,0,21.37484-7.64366,21.37484-17.07248V133.8583a1.08794,1.08794,0,0,0-1.08794-1.08794H143.321c-12.49644,0-22.622-8.09737-22.6344-18.0785C120.699,104.70085,130.82458,96.61341,143.321,96.60354ZM79.01836,110.6111a1.0897,1.0897,0,0,0-.67392.99954v4.48178a1.27287,1.27287,0,0,1-.38279.88761l-4.19844,4.33965a1.2263,1.2263,0,0,0-.01237,1.76542l1.63,1.71611a1.21353,1.21353,0,0,1,0,1.74574l-2.46966,2.60379v.00987l2.46966,2.60373a1.21351,1.21351,0,0,1,0,1.74573l-6.37168,6.72643a2.11918,2.11918,0,0,1-2.50673.30574l-2.60547-1.509a1.35966,1.35966,0,0,1-.75322-1.17368V112.63542a1.09224,1.09224,0,0,0-.80685-1.04653C54.26,109.30674,48.474,103.16022,48.474,95.923c0-9.17238,9.31056-16.609,20.8068-16.609,11.48387,0,20.79451,7.43658,20.79451,16.609C90.07529,102.28631,85.59243,107.81912,79.01836,110.6111ZM69.41659,84.08766c-2.40793,0-4.45019,9.84273-4.45019,11.75605,0,1.92325,1.951,3.48159,4.3589,3.48159,2.39557,0,4.34662-1.55834,4.34662-3.48159C73.67192,93.93039,71.81216,84.08766,69.41659,84.08766Zm-1.24582,51.464h.02207a1.08794,1.08794,0,0,0,1.08794-1.08794V113.60808a1.09514,1.09514,0,0,0-1.06629-1.087l-.022-.00086a1.08039,1.08039,0,0,0-1.10971,1.08741v20.8561A1.08793,1.08793,0,0,0,68.17077,135.55167Zm-1.08794-21.944v20.8561a1.08793,1.08793,0,0,0,1.08794,1.08794h.02207a1.08794,1.08794,0,0,0,1.08794-1.08794V113.60808a1.09514,1.09514,0,0,0-1.06629-1.087l-.022-.00086A1.08039,1.08039,0,0,0,67.08283,113.60763Zm2.33376-29.52c-2.40793,0-4.45019,9.84273-4.45019,11.75605,0,1.92325,1.951,3.48159,4.3589,3.48159,2.39557,0,4.34662-1.55834,4.34662-3.48159C73.67192,93.93039,71.81216,84.08766,69.41659,84.08766Zm0,0c-2.40793,0-4.45019,9.84273-4.45019,11.75605,0,1.92325,1.951,3.48159,4.3589,3.48159,2.39557,0,4.34662-1.55834,4.34662-3.48159C73.67192,93.93039,71.81216,84.08766,69.41659,84.08766Zm-2.33376,29.52v20.8561a1.08793,1.08793,0,0,0,1.08794,1.08794h.02207a1.08794,1.08794,0,0,0,1.08794-1.08794V113.60808a1.09514,1.09514,0,0,0-1.06629-1.087l-.022-.00086A1.08039,1.08039,0,0,0,67.08283,113.60763Z" style="fill: #ae2546"/>
  </g>
  <g>
    <path d="M175.73235,57.41693q-8.24853,0-11.41992-3.57617A10.51061,10.51061,0,0,1,162.121,46.747a23.87885,23.87885,0,0,1,.4043-4.21l2.36426-13.26465q2.5957-14.58984,18.74414-14.59082,6.68847,0,10.15039,2.85449a9.58906,9.58906,0,0,1,3.46,7.81446,16.353,16.353,0,0,1-.66309,4.585,16.07371,16.07371,0,0,1-1.29785,3.374l-.63476,1.15332h-10.208a9.2055,9.2055,0,0,0,1.90332-6.22851,4.917,4.917,0,0,0-1.0957-3.374,4.08467,4.08467,0,0,0-3.2295-1.23926q-5.82567,0-6.92089,6.459L173.079,41.73041a15.54528,15.54528,0,0,0-.28808,2.94043q0,3.80714,4.55566,3.80664,5.47851,0,6.57519-6.1709h10.38086l-.28808,1.67285Q191.70745,57.41792,175.73235,57.41693Z"/>
    <path d="M226.59856,34.75189a11.1797,11.1797,0,0,1-.66211,3.80567,11.161,11.161,0,0,1-1.29883,2.71094l-.63476.80761h-8.707a4.29235,4.29235,0,0,0,1.4414-3.28711,2.31013,2.31013,0,0,0-.66406-1.70214,2.455,2.455,0,0,0-1.8164-.66309,4.16875,4.16875,0,0,0-3.40235,1.96094L207.624,56.60932h-9.80371l4.90235-27.74024h9.1123l-.69141,3.86426q3.28711-4.67139,7.959-4.67188,3.74707,0,5.623,1.78809A6.45866,6.45866,0,0,1,226.59856,34.75189Z"/>
    <path d="M239.287,44.2099a12.61937,12.61937,0,0,0-.17285,2.07617q0,2.76856,3.11426,2.76856a5.51963,5.51963,0,0,0,4.21-1.78809l3.22949-18.39746h9.80469l-5.0752,28.66309a20.11286,20.11286,0,0,1-5.7959,11.59179A14.67,14.67,0,0,1,238.249,73.39252q-5.82568,0-8.3916-2.13477A6.92336,6.92336,0,0,1,227.291,65.664q0-4.90283,6.05566-8.709-3.28711-.80713-4.15234-3.28711a8.8264,8.8264,0,0,1-.51856-3.11426,21.93143,21.93143,0,0,1,.28809-3.51758l3.22949-18.167H241.998Zm.28808,20.93457q3.74855,0,4.90235-6.80469l.57715-3.3457q-8.01709,3.74855-8.0166,7.55567a2.65962,2.65962,0,0,0,.66308,1.874A2.419,2.419,0,0,0,239.57512,65.14447Z"/>
    <path d="M281.15716,28.11908q5.88281,0,8.13183,3.11426a8.73478,8.73478,0,0,1,1.61524,5.4209,14.97272,14.97272,0,0,1-.28907,2.82617l-1.15332,6.74707a13.98969,13.98969,0,0,1-4.21,8.334,11.74656,11.74656,0,0,1-8.07422,2.85547q-4.84423,0-6.748-2.5957l-3.11426,17.82129h-9.80371l7.72754-43.77344H274.121l-.28808,1.55664A10.93185,10.93185,0,0,1,281.15716,28.11908Zm-5.998,20.99317a4.90228,4.90228,0,0,0,2.999-1.03809,4.65931,4.65931,0,0,0,1.73047-3.11426l.75-4.32617a7.57674,7.57674,0,0,0,.11524-1.44141,3.10732,3.10732,0,0,0-.75-1.8457,3.07574,3.07574,0,0,0-2.59571-.98047q-2.99853,0-3.92187,1.44238L271.75677,47.497Q272.56389,49.11274,275.15911,49.11225Z"/>
    <path d="M306.705,57.41693q-6.68994,0-9.63086-2.999a7.94592,7.94592,0,0,1-2.19141-5.88281,15.75882,15.75882,0,0,1,.23047-2.59473L299.03509,23.621l10.55371-4.38378-1.67188,9.63183h15.917l-1.4414,8.13184h-15.918l-1.15332,6.5166a9.60138,9.60138,0,0,0-.23047,1.96094q0,3.6328,3.46,3.63379a3.79943,3.79943,0,0,0,3.08594-1.55762,9.14335,9.14335,0,0,0,1.70117-4.15235H322.912Q320.48918,57.41645,306.705,57.41693Z"/>
    <path d="M343.26946,28.06146q6.22851,0,9.40137,2.71094a7.42029,7.42029,0,0,1,2.47949,5.94043,14.7902,14.7902,0,0,1-.28809,2.76758l-1.21093,6.74707q-1.09717,6.11426-5.1045,8.65137-4.00928,2.53857-10.69824,2.53808-6.69141,0-9.80469-2.53808a6.97152,6.97152,0,0,1-2.30664-5.709,16.8534,16.8534,0,0,1,.28809-2.94238l1.21094-6.74707Q329.25481,28.062,343.26946,28.06146Zm1.55762,12.57227a7.76822,7.76822,0,0,0,.11523-1.4707,3.63435,3.63435,0,0,0-.75-1.98926,2.954,2.954,0,0,0-2.624-1.0957,4.31487,4.31487,0,0,0-3.14258,1.24023,5.82075,5.82075,0,0,0-1.61523,3.31543l-.75,4.32617a7.7016,7.7016,0,0,0-.11524,1.47071,3.37036,3.37036,0,0,0,.75,1.93164,3.02192,3.02192,0,0,0,2.624,1.03808,4.22278,4.22278,0,0,0,3.14355-1.29785,5.96627,5.96627,0,0,0,1.61426-3.14258Z"/>
    <path d="M226.48333,84.29291l-.98047,31.43164H226.829l10.03516-31.43164h11.30468l-14.24609,41.52441H216.622l1.55664-26.58691-7.72852,26.58691H193.14837l.40332-41.52441h11.30468l-1.03906,31.43164h1.32617l10.09375-31.43164Z"/>
    <path d="M272.56438,116.93549a1.33823,1.33823,0,0,0,1.52832,1.5,5.22207,5.22207,0,0,0,2.56641-.57715l-.28809,6.51758a9.62457,9.62457,0,0,1-6.22851,2.249q-6.34571,0-7.03614-4.61426a9.37784,9.37784,0,0,1-8.47851,4.61426q-9.45849,0-9.458-8.13183a18.09606,18.09606,0,0,1,.28809-3.05665l1.21093-6.748a14.35783,14.35783,0,0,1,4.23926-8.27637,12.19681,12.19681,0,0,1,8.65137-3.085q5.33349,0,7.2373,2.47949l.28907-1.72949h8.76562l-3.22949,18.167A4.12942,4.12942,0,0,0,272.56438,116.93549Zm-17.07129-2.76856a6.99633,6.99633,0,0,0-.11523,1.44239,2.6304,2.6304,0,0,0,.86523,1.8164,3.93492,3.93492,0,0,0,2.91211.89453,4.68579,4.68579,0,0,0,3.54688-1.61523l1.73047-9.68945q-.63575-1.43994-2.999-1.44141-4.44139,0-5.19043,4.26758Z"/>
    <path d="M290.96184,116.93549a1.33823,1.33823,0,0,0,1.52832,1.5,5.22207,5.22207,0,0,0,2.56641-.57715l-.28809,6.51758a9.62524,9.62524,0,0,1-6.22949,2.249q-5.24853,0-6.80469-2.42285a6.25339,6.25339,0,0,1-.98046-3.40234,19.8169,19.8169,0,0,1,.23046-3.2295l6.28614-35.52636h9.80468l-6.05566,34.20019A4.12942,4.12942,0,0,0,290.96184,116.93549Z"/>
    <path d="M309.35833,116.93549a1.33823,1.33823,0,0,0,1.52832,1.5,5.22205,5.22205,0,0,0,2.5664-.57715l-.28808,6.51758a9.62526,9.62526,0,0,1-6.22949,2.249q-5.24855,0-6.80469-2.42285a6.25331,6.25331,0,0,1-.98047-3.40234,19.81569,19.81569,0,0,1,.23047-3.2295l6.28613-35.52636h9.80469L309.416,116.24408A4.12837,4.12837,0,0,0,309.35833,116.93549Z"/>
    <path d="M328.67864,126.62494q-11.99707,0-11.99609-8.30469a14.47325,14.47325,0,0,1,.23047-2.48047l1.21093-7.15136a12.746,12.746,0,0,1,5.1045-8.50684q4.12206-2.96923,10.92871-2.96972,11.59277,0,11.59277,8.76562a18.3548,18.3548,0,0,1-.23145,2.76855l-.6914,4.09473H327.23626l-.23047,1.32617a7.75736,7.75736,0,0,0-.11524,1.26953q0,3.17139,3.749,3.17188a3.44913,3.44913,0,0,0,2.36426-.86523,3.30441,3.30441,0,0,0,1.15332-2.01856l9.57421.11523Q341.82708,126.62543,328.67864,126.62494Zm6.9209-17.30176a7.98919,7.98919,0,0,0,.23047-1.81738,2.63494,2.63494,0,0,0-.75-1.70117,3.01,3.01,0,0,0-2.39356-.86524,4.6634,4.6634,0,0,0-2.999,1.09571,5.77749,5.77749,0,0,0-1.874,3.28808Z"/>
    <path d="M361.204,126.62494q-6.68994,0-9.63086-2.999a7.946,7.946,0,0,1-2.1914-5.88281,15.78026,15.78026,0,0,1,.23046-2.59571l3.92188-22.31933,10.55371-4.38282L362.416,98.07709h15.917l-1.44141,8.13184h-15.918l-1.15332,6.5166a9.587,9.587,0,0,0-.23047,1.96093q0,3.63282,3.46,3.63379a3.79942,3.79942,0,0,0,3.08594-1.55761,9.14335,9.14335,0,0,0,1.70117-4.15235h9.57422Q374.98822,126.62446,361.204,126.62494Z"/>
  </g>
</svg>
