<svg width="100" height="100" viewBox="0 0 100 100" fill="none" xmlns="http://www.w3.org/2000/svg">
<g clip-path="url(#clip0_111_1068)" filter="url(#filter0_i_111_1068)">
<path d="M98.4937 62.0953C91.8156 88.8813 64.6844 105.181 37.8953 98.5031C11.1187 91.825 -5.18282 64.6938 1.49687 37.9094C8.17187 11.1203 35.3016 -5.1828 62.0828 1.49533C88.8703 8.17345 105.172 35.3078 98.4937 62.0953Z" fill="#F7931A"/>
<path d="M72.0406 42.8766C73.0344 36.2234 67.9688 32.6469 61.0422 30.2609L63.2891 21.2484L57.8016 19.8813L55.6141 28.6563C54.1735 28.2969 52.6922 27.9578 51.2203 27.6219L53.4235 18.7891L47.9407 17.4219L45.6922 26.4313C44.4985 26.1594 43.3266 25.8906 42.1891 25.6078L42.1953 25.5797L34.6297 23.6906L33.1703 29.55C33.1703 29.55 37.2407 30.4828 37.1547 30.5406C39.3766 31.0953 39.7797 32.5656 39.711 33.7312L37.1516 43.9984C37.3047 44.0375 37.5031 44.0937 37.7219 44.1812L37.1438 44.0375L33.5547 58.4203C33.2828 59.0953 32.5938 60.1078 31.0407 59.7234C31.0953 59.8031 27.0532 58.7281 27.0532 58.7281L24.3297 65.0094L31.4703 66.7891C32.7985 67.1219 34.1 67.4703 35.3797 67.7984L33.1094 76.9156L38.5891 78.2828L40.8391 69.2641C42.3344 69.6703 43.7875 70.0453 45.2094 70.3984L42.9688 79.375L48.4547 80.7422L50.725 71.6438C60.0797 73.4141 67.1157 72.7 70.0735 64.2406C72.4594 57.4281 69.9563 53.4984 65.0344 50.9344C68.6188 50.1047 71.3203 47.7469 72.0406 42.8766ZM59.5047 60.4531C57.8078 67.2656 46.3391 63.5844 42.6188 62.6594L45.6313 50.5828C49.35 51.5109 61.2719 53.3484 59.5047 60.4531ZM61.2 42.7781C59.6531 48.975 50.1063 45.8266 47.0078 45.0547L49.7391 34.1016C52.8375 34.8734 62.8125 36.3141 61.2 42.7781Z" fill="white"/>
</g>
<defs>
<filter id="filter0_i_111_1068" x="0" y="0" width="104" height="104" filterUnits="userSpaceOnUse" color-interpolation-filters="sRGB">
<feFlood flood-opacity="0" result="BackgroundImageFix"/>
<feBlend mode="normal" in="SourceGraphic" in2="BackgroundImageFix" result="shape"/>
<feColorMatrix in="SourceAlpha" type="matrix" values="0 0 0 0 0 0 0 0 0 0 0 0 0 0 0 0 0 0 127 0" result="hardAlpha"/>
<feOffset dx="10" dy="6"/>
<feGaussianBlur stdDeviation="2"/>
<feComposite in2="hardAlpha" operator="arithmetic" k2="-1" k3="1"/>
<feColorMatrix type="matrix" values="0 0 0 0 0 0 0 0 0 0 0 0 0 0 0 0 0 0 0.32 0"/>
<feBlend mode="normal" in2="shape" result="effect1_innerShadow_111_1068"/>
</filter>
<clipPath id="clip0_111_1068">
<rect width="100" height="100" fill="white"/>
</clipPath>
</defs>
</svg>
