<svg width="100" height="100" viewBox="0 0 100 100" fill="none" xmlns="http://www.w3.org/2000/svg">
<g clip-path="url(#clip0_111_538)" filter="url(#filter0_i_111_538)">
<path d="M50 100C77.6142 100 100 77.6142 100 50C100 22.3858 77.6142 0 50 0C22.3858 0 0 22.3858 0 50C0 77.6142 22.3858 100 50 100Z" fill="#FF060A"/>
<path d="M82.8525 35.1967C80.0164 33.2131 76.9836 31.0984 74.0164 29C73.9508 28.9508 73.8853 28.9017 73.8033 28.8525C73.4754 28.6066 73.0984 28.3443 72.6393 28.1967L72.6066 28.1804C64.6721 26.2623 56.6066 24.2951 48.8033 22.3935C41.7213 20.6722 34.6557 18.9508 27.5738 17.2295C27.3934 17.1804 27.2131 17.1312 27.0164 17.082C26.3771 16.9017 25.6393 16.7049 24.8525 16.8033C24.623 16.8361 24.4262 16.9181 24.2459 17.0328L24.0492 17.1967C23.7377 17.4918 23.5738 17.8689 23.4918 18.082L23.4426 18.2131V18.9672L23.4754 19.082C27.9508 31.623 32.541 44.3443 36.9672 56.6558C40.3771 66.1312 43.918 75.9508 47.3771 85.5902C47.5902 86.2459 48.1967 86.6722 48.9508 86.7377H49.1148C49.8197 86.7377 50.4426 86.3935 50.7541 85.8361L63.7377 66.9017C66.9016 62.2951 70.0656 57.6722 73.2295 53.0656C74.5246 51.1804 75.8197 49.2787 77.1148 47.3935C79.2459 44.2787 81.4426 41.0656 83.623 37.9345L83.7377 37.7705V37.5738C83.7869 37 83.8033 35.8197 82.8525 35.1967ZM67.6393 42.0984C64.5902 43.6885 61.4754 45.3279 58.3443 46.9508C60.1639 45 62 43.0328 63.8197 41.082C66.0984 38.623 68.4754 36.082 70.8033 33.5902L70.8525 33.541C71.0492 33.2787 71.2951 33.0328 71.5574 32.7705C71.7377 32.5902 71.9344 32.4099 72.1148 32.1967C73.3279 33.0328 74.5574 33.8853 75.7377 34.7213C76.5902 35.3279 77.459 35.9345 78.3443 36.541C74.7377 38.3771 71.1312 40.2623 67.6393 42.0984ZM59.8033 41.3115C57.459 43.8525 55.0328 46.459 52.623 49.0328C47.9508 43.3607 43.1803 37.6066 38.5574 32.0492C36.459 29.5246 34.3443 26.9836 32.2459 24.459L32.2295 24.4426C31.7541 23.9017 31.2951 23.3115 30.8361 22.7541C30.541 22.3771 30.2295 22.0164 29.918 21.6394C31.8197 22.1312 33.7377 22.5902 35.623 23.0328C37.2787 23.4263 39 23.8361 40.6885 24.2623C50.1967 26.5738 59.7213 28.8853 69.2295 31.1967C66.0656 34.5738 62.8852 38 59.8033 41.3115ZM51.5574 73.2623C51.7377 71.541 51.9344 69.7705 52.0984 68.0328C52.2459 66.6394 52.3934 65.2131 52.541 63.8525C52.7705 61.6722 53.0164 59.4099 53.2131 57.1967L53.2623 56.8033C53.4262 55.3935 53.5902 53.9345 53.6885 52.4754C53.8689 52.3771 54.0656 52.2787 54.2787 52.1967C54.5246 52.082 54.7705 51.9836 55.0164 51.8361C58.8033 49.8525 62.5902 47.8689 66.3934 45.9017C70.1803 43.9345 74.0656 41.9017 77.918 39.8853C74.4098 44.9672 70.8853 50.0984 67.4754 55.0984C64.541 59.3771 61.5246 63.7869 58.5246 68.1312C57.3443 69.8689 56.1148 71.6394 54.9508 73.3443C53.6393 75.2459 52.2951 77.1967 50.9836 79.1476C51.1475 77.1804 51.3443 75.1967 51.5574 73.2623ZM28.7049 25.5082C28.4918 24.9181 28.2623 24.3115 28.0656 23.7377C32.4918 29.082 36.9508 34.459 41.2951 39.6722C43.541 42.3771 45.7869 45.0656 48.0328 47.7869C48.4754 48.2951 48.918 48.8361 49.3443 49.3607C49.9016 50.0328 50.459 50.7377 51.0656 51.4099C50.8689 53.0984 50.7049 54.8033 50.5246 56.4426C50.4098 57.5902 50.2951 58.7377 50.1639 59.9017V59.9181C50.1148 60.6558 50.0164 61.3935 49.9344 62.1148C49.8197 63.1148 49.5574 65.3771 49.5574 65.3771L49.541 65.4918C49.2459 68.8033 48.8853 72.1476 48.541 75.3935C48.3934 76.7377 48.2623 78.1148 48.1148 79.4918C48.0328 79.2459 47.9344 79 47.8525 78.7705C47.6066 78.1148 47.3607 77.4263 47.1312 76.7541L45.3771 71.8853C39.8197 56.4263 34.2623 40.9836 28.7049 25.5082Z" fill="white"/>
</g>
<defs>
<filter id="filter0_i_111_538" x="0" y="0" width="104" height="104" filterUnits="userSpaceOnUse" color-interpolation-filters="sRGB">
<feFlood flood-opacity="0" result="BackgroundImageFix"/>
<feBlend mode="normal" in="SourceGraphic" in2="BackgroundImageFix" result="shape"/>
<feColorMatrix in="SourceAlpha" type="matrix" values="0 0 0 0 0 0 0 0 0 0 0 0 0 0 0 0 0 0 127 0" result="hardAlpha"/>
<feOffset dx="10" dy="6"/>
<feGaussianBlur stdDeviation="2"/>
<feComposite in2="hardAlpha" operator="arithmetic" k2="-1" k3="1"/>
<feColorMatrix type="matrix" values="0 0 0 0 0 0 0 0 0 0 0 0 0 0 0 0 0 0 0.32 0"/>
<feBlend mode="normal" in2="shape" result="effect1_innerShadow_111_538"/>
</filter>
<clipPath id="clip0_111_538">
<rect width="100" height="100" fill="white"/>
</clipPath>
</defs>
</svg>
